<svg width="256" height="256" viewBox="0 0 256 256" fill="none" xmlns="http://www.w3.org/2000/svg">
<path d="M192.802 48.1012C203.999 48.1012 213.075 39.0189 213.075 27.8153C213.075 16.6116 203.999 7.5293 192.802 7.5293C181.606 7.5293 172.53 16.6116 172.53 27.8153C172.53 39.0189 181.606 48.1012 192.802 48.1012Z" fill="#172647"/>
<path d="M118.195 244.243C183.472 244.243 236.389 191.291 236.389 125.971C236.389 60.651 183.472 7.69873 118.195 7.69873C52.9175 7.69873 0 60.651 0 125.971C0 191.291 52.9175 244.243 118.195 244.243Z" fill="url(#paint0_radial_552_234)"/>
<path d="M139.243 248.403C138.285 248.633 137.886 248.281 137.607 247.299C137.183 245.808 136.504 244.377 135.85 242.958C135.765 242.788 135.099 242.728 134.783 242.837C133.996 243.116 133.269 243.528 132.505 243.88C134.42 241.794 136.165 239.515 138.273 237.647C149.724 227.51 161.248 217.458 172.796 207.43C179.485 201.622 185.798 195.426 191.288 188.466C196.91 181.324 201.721 173.685 205.271 165.246C209.003 156.382 211.185 147.179 211.924 137.624C212.13 134.968 211.621 132.264 211.681 129.597C211.815 123.728 210.518 118.15 208.604 112.682C205.611 104.145 201.466 96.1789 196.026 88.9764C191.566 83.0591 186.731 77.4208 182.006 71.7097C177.231 65.9622 172.639 60.1055 169.694 53.1455C167.743 48.5499 166.18 43.8574 166.01 38.801C166.01 37.2368 166.01 35.6727 166.01 34.1085C166.325 30.7497 166.653 27.3788 166.968 24.02C166.834 23.9837 166.701 23.9473 166.556 23.9109C166.192 24.5778 165.792 25.2205 165.477 25.9116C161.285 35.127 161.442 44.7304 163.32 54.3581C164.096 58.3352 165.804 62.1426 167.113 66.0228C169.706 73.674 173.863 80.5855 177.631 87.6668C179.97 92.0563 182.757 96.2153 185.144 100.593C191.203 111.736 194.087 123.643 193.735 136.387C193.554 142.704 192.451 148.767 190.524 154.721C186.622 166.761 179.582 176.959 171.245 186.235C165.126 193.037 158.57 199.452 152.136 205.963C146.247 211.941 141.218 218.55 137.122 225.873C135.002 229.681 132.857 233.464 130.724 237.271C130.797 236.665 130.833 236.047 130.966 235.452C131.1 234.895 131.439 234.385 131.512 233.84C131.56 233.391 131.488 232.664 131.209 232.494C130.857 232.276 130.239 232.494 129.73 232.506C129.343 232.518 128.943 232.53 128.555 232.554C130.785 228.638 132.917 224.673 135.256 220.829C139.655 213.59 145.011 207.067 150.791 200.907C155.189 196.226 159.697 191.655 164.181 187.06C164.75 186.465 164.799 186.041 164.387 185.301C162.206 181.373 159.212 178.208 154.874 176.983C150.318 175.698 145.604 174.983 140.939 174.146C137.365 173.503 133.741 173.079 130.554 171.163C128.482 169.914 126.834 168.301 126.107 165.901C124.665 161.111 126.798 156.043 130.966 153.326C133.039 151.981 134.723 149.992 136.528 148.258C136.953 147.846 137.195 147.252 137.522 146.73C136.843 146.791 136.141 146.767 135.486 146.924C132.675 147.567 129.888 148.367 127.052 148.876C125.089 149.228 123.732 147.821 123.66 145.736C123.575 143.384 125.174 141.237 127.028 141.468C128.47 141.65 129.912 142.074 131.257 142.607C134.032 143.711 136.856 144.39 139.861 144.075C140.309 144.026 140.733 143.82 141.169 143.699C140.879 143.335 140.661 142.838 140.285 142.62C137.825 141.201 135.329 139.843 132.857 138.473C132.166 137.891 131.5 137.272 130.773 136.714C129.5 135.744 128.252 134.714 126.883 133.914C126.241 133.538 125.114 133.319 124.593 133.647C124.108 133.962 124.12 135.078 123.963 135.854C123.878 136.29 123.878 136.751 123.841 137.212C122.012 134.847 122.012 133.307 123.623 130.809C124.69 129.16 125.598 127.426 126.568 125.741C130.845 128.566 135.68 126.966 136.843 121.776C137.219 120.09 136.577 118.175 136.395 116.356C135.995 115.507 135.583 114.67 135.014 113.482C134.481 117.265 131.609 120.078 128.519 119.387C126.992 118.963 125.477 118.429 123.926 118.175C123.332 118.078 122.266 118.466 122.096 118.902C121.878 119.46 122.169 120.418 122.569 120.963C123.429 122.128 124.508 123.134 125.489 124.213C122.714 123.17 120.097 121.946 118.74 119.108C117.346 116.21 118.704 113.688 120.23 111.481C123.369 106.946 126.75 102.581 130.094 98.1918C133.572 93.6204 135.923 88.6732 136.625 82.853C137.159 78.5121 138.116 74.1469 139.521 70.0121C141.521 64.1312 144.235 58.4929 147.798 53.3516C150.064 50.0778 152.766 47.1798 156.038 44.8395C156.595 44.4394 157.14 43.6876 157.249 43.0207C157.649 40.6562 157.758 38.2433 158.158 35.8788C158.885 31.5379 161.042 27.7911 163.248 24.0685C163.878 23.0015 164.471 21.9102 165.077 20.831C165.926 21.9708 166.737 23.1349 167.634 24.2383C167.901 24.5657 168.398 24.9658 168.737 24.9173C169.04 24.8688 169.306 24.2868 169.5 23.8988C170.082 22.6862 170.554 21.4131 171.209 20.2369C171.427 19.8489 172.057 19.7034 172.493 19.4487C171.815 20.734 170.991 21.983 170.47 23.3289C168.555 28.3004 168.64 33.4173 169.621 38.5585C171.185 46.6341 175.583 53.2304 180.709 59.3901C186.671 66.5563 192.936 73.4557 198.873 80.6462C205.974 89.2431 211.791 98.6404 215.668 109.177C221.23 124.237 221.933 139.552 217.91 155.036C216.625 159.971 214.917 164.821 213.039 169.575C208.264 181.652 201.309 192.383 192.596 202.022C186.162 209.14 178.903 215.324 171.282 221.096C165.271 225.643 159.152 230.057 152.972 234.373C147.931 237.89 143.193 241.721 139.194 246.414C138.637 247.081 137.789 247.748 139.194 248.415L139.243 248.403ZM155.868 88.1155C156.001 88.2852 156.135 88.4429 156.268 88.6126C156.753 88.9885 157.286 89.328 157.734 89.7645C159.031 91.0256 160.291 92.323 161.551 93.6204C161.903 93.9842 162.205 94.3722 162.533 94.7602C157.213 92.8687 152.015 94.348 146.816 95.4029C146.586 95.4514 146.235 96.1183 146.332 96.3244C147.228 98.3009 146.319 99.6226 144.853 100.775C144.15 101.32 143.435 101.854 142.72 102.387C146.404 102.375 149.943 101.999 153.226 100.459C156.631 98.8587 159.976 97.1126 163.332 95.4271C166.847 95.4514 170.239 94.833 173.535 93.5962C174.25 93.3294 175.002 92.9657 174.481 92.0078C171.924 87.3031 168.894 83.0349 163.732 80.828C163.417 80.6947 163.26 80.1733 163.029 79.8216L164.835 80.4158C164.908 80.3066 164.993 80.1854 165.065 80.0763C164.108 79.1911 163.151 78.3302 162.206 77.4329C159.152 74.4985 155.553 72.8131 151.288 72.6676C143.351 72.3887 139.255 77.0206 140.539 84.8295C140.794 86.3694 140.939 87.9336 141.266 89.4493C141.8 91.8986 142.442 94.3359 143.048 96.7731C143.266 96.8216 143.484 96.8701 143.702 96.9307C144.199 96.0092 144.793 95.124 145.168 94.154C145.823 92.4685 146.15 90.6497 146.95 89.0491C148.27 86.4179 150.367 85.7874 153.129 86.915C154.063 87.2909 154.947 87.8002 155.844 88.2488L155.868 88.1518V88.1155ZM188.549 127.317C187.919 124.055 187.325 120.769 186.622 117.52C186.235 115.713 185.835 115.58 184.029 116.392C182.078 117.277 180.127 118.187 178.189 119.108C172.142 121.994 166.253 125.147 160.982 129.354C158.061 131.682 155.408 134.217 154.814 138.157C154.705 138.873 154.935 139.649 155.02 140.389C155.638 140.037 156.353 139.794 156.862 139.334C163.005 133.756 169.864 129.245 177.28 125.547C178.285 125.038 179.315 124.565 180.394 124.225C180.939 124.055 181.594 124.225 182.199 124.249C182.163 124.844 182.321 125.535 182.066 126.02C181.691 126.735 181.133 127.414 180.491 127.924C176.407 131.197 173.245 135.49 168.652 138.23C166.834 139.321 165.962 141.274 165.247 143.456C163.975 147.373 162.254 151.204 160.23 154.806C156.68 161.123 151.712 166.058 144.768 168.665C143.12 169.284 141.412 169.756 139.388 170.411C141.884 170.666 144.066 170.896 146.235 171.115C148.925 171.672 151.651 172.085 154.293 172.8C159.128 174.11 163.466 176.268 166.168 180.803C167.501 183.034 167.574 183.095 169.197 181.167C175.353 173.879 180.915 166.204 184.381 157.182C188.076 147.53 189.603 137.6 188.525 127.293L188.549 127.317ZM149.264 131.901C153.129 128.76 156.607 125.668 160.364 122.952C167.295 117.932 174.844 113.967 182.805 110.814C184.114 110.293 184.259 109.65 183.714 108.486C182.611 106.134 181.497 103.782 180.539 101.369C180.079 100.192 179.4 100.023 178.382 100.374C176.674 100.956 175.002 101.635 173.281 102.12C165.308 104.352 157.831 107.783 150.573 111.7C148.234 112.961 146.538 114.767 146.271 117.665C145.968 121.036 146.198 124.359 147.216 127.56C147.725 129.16 148.646 130.627 149.264 131.901ZM157.843 69.1633C157.88 69.0542 157.916 68.945 157.952 68.8359C157.419 68.557 156.91 68.2296 156.353 68.0235C155.444 67.7082 154.184 66.3987 153.747 65.4529C153.626 65.1861 152.766 64.9194 152.645 65.0406C152.051 65.6712 151.566 66.4108 151.094 67.1383C151.033 67.2353 151.275 67.684 151.433 67.7204C153.566 68.2296 155.698 68.6904 157.843 69.1633Z" fill="#7289B5"/>
<path d="M132.869 138.498C135.353 139.88 137.849 141.226 140.297 142.645C140.673 142.863 140.891 143.36 141.182 143.724C140.745 143.857 140.321 144.063 139.873 144.1C136.868 144.415 134.044 143.724 131.269 142.632C129.912 142.099 128.47 141.674 127.04 141.493C125.186 141.262 123.587 143.408 123.672 145.761C123.744 147.846 125.102 149.253 127.065 148.901C129.9 148.392 132.675 147.58 135.498 146.949C136.165 146.804 136.856 146.816 137.534 146.755C137.207 147.264 136.965 147.871 136.541 148.283C134.723 150.029 133.051 152.005 130.979 153.351C126.81 156.055 124.677 161.136 126.119 165.925C126.847 168.326 128.495 169.939 130.567 171.188C133.766 173.116 137.377 173.528 140.951 174.171C145.617 175.008 150.33 175.723 154.887 177.008C159.225 178.233 162.218 181.398 164.399 185.326C164.811 186.066 164.762 186.502 164.193 187.084C159.709 191.68 155.202 196.251 150.803 200.932C145.023 207.092 139.655 213.603 135.268 220.854C132.93 224.698 130.797 228.675 128.567 232.579C128.458 232.361 128.24 232.119 128.276 231.912C129.016 227.171 129.791 222.43 130.53 217.689C130.7 216.622 130.688 215.531 130.785 214.464C131.269 208.692 131.318 202.933 130.482 197.185C130.651 197.391 130.954 197.597 130.966 197.828C131.233 200.835 131.584 203.842 131.645 206.849C131.694 209.529 131.354 212.221 131.282 214.9C131.282 215.313 131.681 215.895 132.069 216.101C132.36 216.258 133.051 216.101 133.317 215.846C133.802 215.361 134.287 214.731 134.456 214.076C134.868 212.536 135.171 210.948 135.389 209.359C136.056 204.388 135.801 199.537 133.766 194.821C132.251 191.292 130.433 187.982 128.01 185.011C127.671 184.599 127.101 184.368 126.653 184.053C126.519 184.55 126.253 185.047 126.289 185.545C126.362 186.745 126.568 187.945 126.713 189.146C126.762 191.547 127.053 193.972 126.81 196.336C126.471 199.671 125.768 202.981 125.126 206.279C124.968 207.092 124.411 207.843 123.829 208.595C122.218 197.391 122.036 185.92 116.571 175.626C116.547 175.432 116.571 175.226 116.486 175.056C114.68 171.418 112.148 168.326 109.191 165.562C109.009 165.392 108.719 165.331 108.379 165.174C109.906 168.52 111.36 171.734 112.827 174.947C114.329 179.179 114.717 183.568 114.462 188.079C110.839 180.04 107.883 171.612 102.066 164.737C99.9213 162.47 97.7765 160.202 95.6317 157.935C95.5348 157.862 95.4257 157.801 95.3288 157.729C95.3045 157.789 95.2803 157.85 95.2561 157.911C95.3894 157.911 95.5227 157.898 95.6438 157.886C95.7408 158.396 95.7165 158.99 95.971 159.402C97.2555 161.597 98.6126 163.743 99.9456 165.913C100.442 167.744 101.036 169.551 101.412 171.406C101.618 172.413 101.448 173.492 101.448 174.911C98.443 170.46 95.7044 166.411 92.9537 162.361C90.9422 158.917 83.0537 151.63 80.4727 151.375C80.6181 151.666 80.715 151.933 80.8725 152.139C82.1449 153.873 83.5626 155.51 84.6653 157.341C85.4772 158.687 85.8892 160.275 86.483 161.766C86.3375 161.73 86.1921 161.706 86.0467 161.669C85.8044 161.5 85.562 161.33 85.3197 161.16C83.0779 159.123 80.8362 157.086 78.5944 155.061C75.6378 151.581 71.7601 149.314 67.931 146.901C68.0037 147.373 68.1491 147.774 68.3915 148.101C69.3487 149.398 70.3909 150.635 71.2997 151.957C72.0994 153.133 72.778 154.394 73.5172 155.607C72.0267 154.722 70.512 153.885 69.0579 152.951C65.9437 150.963 62.9992 148.635 59.7274 146.973C56.8919 145.543 53.705 144.791 50.6393 143.821C45.2469 142.135 40.0849 140.135 36.9828 134.945C36.9101 134.811 36.8374 134.678 36.7647 134.545C36.5465 134.084 36.3406 133.623 36.1224 133.162C36.4133 132.532 34.7774 131.137 36.5465 131.247C39.5881 131.428 42.6053 132.083 45.6347 132.544C45.1864 132.592 44.738 132.629 44.2897 132.677C44.2654 132.847 44.2291 133.029 44.2048 133.199C48.0219 134.132 51.645 135.818 55.6075 136.06C61.4845 136.424 67.1676 135.418 72.4993 132.847C71.5784 132.774 70.6574 132.702 69.7244 132.629C71.1664 132.18 72.5841 131.671 74.0382 131.295C77.0192 130.519 79.1882 128.882 80.2182 125.899C80.2909 126.675 80.1576 127.997 80.4848 128.13C82.5326 128.955 84.1685 130.18 85.453 131.986C86.5557 133.55 87.8886 134.957 88.9428 136.558C89.6214 137.576 89.7305 139.043 90.5181 139.916C92.9537 142.572 95.4499 145.191 98.1885 147.519C101.182 150.077 104.841 151.508 108.646 152.539C107.543 151.411 106.368 150.405 105.205 149.386C102.151 146.707 99.1216 144.015 96.0679 141.347C92.9295 138.619 90.1909 135.6 89.1609 131.441C88.034 126.869 86.9798 122.274 86.0346 117.654C85.562 115.35 85.3924 112.998 85.0773 110.657C85.2227 110.597 85.3803 110.524 85.5257 110.463C86.0467 111.252 86.6647 111.979 87.0646 112.828C88.858 116.635 90.6635 120.418 93.3657 123.729C97.2191 128.458 101.824 132.132 107.446 134.484C107.725 134.605 108.089 134.533 108.416 134.545C108.331 134.193 108.343 133.781 108.149 133.514C105.386 129.719 102.587 125.948 99.8123 122.165C95.6317 116.466 91.948 110.463 88.9913 104.037C88.1431 102.182 87.7553 100.12 87.1494 98.156C87.3433 98.0227 87.5372 97.8893 87.7311 97.7438C92.5296 105.019 98.7701 110.015 107.992 110.827C106.125 109.481 104.49 108.341 102.89 107.153C100.212 105.165 97.5342 103.176 96.0073 100.072C95.8741 99.793 95.8741 99.4656 95.8014 99.1503C96.1649 99.1503 96.589 99.0412 96.8919 99.1867C98.1643 99.8051 99.376 100.545 100.66 101.151C103.193 102.351 105.786 103.285 109.082 102.703C105.944 101.381 103.229 100.193 101.048 98.0105C107.119 98.8229 113.142 100.157 118.922 97.0162C118.207 96.9556 117.504 97.0405 116.789 97.1011C113.844 97.3679 110.912 97.4164 108.125 96.2281C107.677 96.0341 107.349 95.5491 106.962 95.1974C107.422 94.9913 107.87 94.7124 108.355 94.5669C112.766 93.3058 117.189 92.1054 121.587 90.8201C122.399 90.5776 123.126 90.0562 124.205 89.4984C119.964 90.1047 116.159 90.6382 112.354 91.1839C112.354 90.5049 112.415 90.2502 112.596 90.1411C115.48 88.298 118.316 86.3943 121.272 84.6967C123.296 83.5327 124.302 82.2474 123.817 80.8045C123.102 78.7067 123.26 78.2945 125.162 77.1668C127.513 75.7724 128.834 71.9407 127.743 69.4186C125.901 65.1383 122.933 61.9129 118.631 59.9971C118.352 59.8758 118.134 59.5969 117.892 59.3908C118.158 59.2211 118.413 58.9907 118.704 58.9058C119.212 58.7603 119.782 58.7724 120.279 58.5784C121.636 58.0691 122.993 57.5356 124.29 56.9051C125.623 56.2503 126.859 55.3651 128.216 54.771C130.651 53.7039 133.172 52.8309 135.632 51.8002C136.565 51.4122 137.377 50.7453 138.298 50.2967C139.933 49.4964 141.594 48.7567 143.654 47.811C141.872 47.2047 140.467 46.5499 138.988 46.2589C137.304 45.9194 135.401 46.2953 134.444 44.2582C134.323 44.0035 133.778 43.8944 133.414 43.8217C132.348 43.6398 131.269 43.5185 130.203 43.373C130.13 43.179 130.046 42.9971 129.973 42.8031C131.9 41.6269 133.79 40.3538 135.777 39.2867C138.443 37.8438 141.206 36.5827 143.896 35.164C144.999 34.582 146.198 33.9758 145.883 32.3146C145.847 32.1084 146.235 31.7204 146.501 31.5749C148.997 30.2168 151.494 28.8952 154.014 27.5856C155.02 27.0642 156.062 26.6156 157.08 26.1306C156.898 26.0214 156.704 25.9244 156.522 25.8153C156.547 25.5 156.438 25.0999 156.595 24.8937C157.14 24.142 157.819 23.4872 158.376 22.7475C158.922 22.0321 158.91 21.4744 157.783 21.4259C157.116 21.3895 156.462 21.2561 155.807 21.1591C157.758 21.0378 159.709 20.9045 161.672 20.7832C162.751 20.7832 163.829 20.7832 164.896 20.7832C165.005 20.7832 165.102 20.8075 165.211 20.8196C164.605 21.8987 164.011 22.99 163.381 24.0571C161.176 27.7796 159.019 31.5264 158.292 35.8673C157.892 38.2318 157.783 40.6448 157.383 43.0093C157.274 43.6762 156.74 44.4279 156.171 44.8281C152.899 47.1683 150.209 50.0663 147.931 53.3402C144.368 58.4814 141.654 64.1198 139.655 70.0006C138.249 74.1354 137.292 78.5006 136.759 82.8415C136.044 88.6618 133.693 93.609 130.227 98.1803C126.883 102.57 123.49 106.935 120.364 111.47C118.837 113.677 117.48 116.199 118.873 119.097C120.23 121.934 122.848 123.159 125.623 124.202C124.641 123.135 123.563 122.116 122.702 120.952C122.302 120.406 122.012 119.448 122.23 118.891C122.399 118.454 123.478 118.066 124.059 118.163C125.611 118.418 127.125 118.951 128.652 119.376C129.27 119.836 129.888 120.297 130.518 120.734C132.106 121.837 133.923 121.704 134.989 120.127C135.729 119.024 136.02 117.617 136.516 116.344C136.698 118.163 137.34 120.079 136.965 121.764C135.789 126.954 130.966 128.567 126.689 125.729C125.72 127.415 124.811 129.161 123.744 130.798C122.133 133.296 122.133 134.836 123.963 137.2C124.496 137.515 125.271 138.231 125.538 138.073C127.053 137.188 128.482 137.831 129.949 138.073C130.954 138.231 131.96 138.34 132.978 138.473L132.869 138.498ZM109.918 119.17C109.967 119.024 110.027 118.879 110.076 118.745C109.906 118.588 109.749 118.394 109.555 118.26C106.574 116.235 103.593 114.21 100.6 112.21C100.333 112.028 99.9577 112.04 99.6184 111.955C99.7032 112.319 99.6547 112.864 99.885 113.034C102.127 114.707 104.368 116.393 106.707 117.921C107.64 118.527 108.828 118.769 109.894 119.17H109.918Z" fill="#72181A"/>
<path d="M155.698 21.1703C156.353 21.2673 157.019 21.4007 157.674 21.4371C158.8 21.4977 158.8 22.0434 158.267 22.7588C157.71 23.4984 157.043 24.1532 156.486 24.905C156.328 25.1111 156.425 25.5113 156.413 25.8265C156.595 25.9357 156.789 26.0327 156.971 26.1418C155.941 26.6268 154.911 27.0755 153.905 27.5968C151.385 28.9064 148.888 30.2402 146.392 31.5861C146.125 31.7316 145.738 32.1197 145.774 32.3258C146.101 33.987 144.89 34.5933 143.787 35.1753C141.109 36.594 138.334 37.855 135.668 39.298C133.681 40.3771 131.79 41.6382 129.864 42.8144C129.936 43.0084 130.021 43.1902 130.094 43.3843C131.16 43.5298 132.239 43.651 133.305 43.8329C133.669 43.8935 134.214 44.0148 134.335 44.2694C135.28 46.3065 137.195 45.9306 138.879 46.2701C140.358 46.5733 141.763 47.2159 143.544 47.8222C141.484 48.768 139.824 49.5076 138.188 50.3079C137.28 50.7566 136.456 51.4113 135.523 51.8115C133.063 52.8421 130.542 53.7273 128.107 54.7822C126.75 55.3764 125.526 56.2615 124.181 56.9163C122.884 57.5468 121.527 58.0682 120.17 58.5896C119.673 58.7715 119.115 58.7594 118.594 58.917C118.304 59.0019 118.049 59.2323 117.783 59.402C118.025 59.6082 118.243 59.8871 118.522 60.0083C122.823 61.9241 125.792 65.1495 127.634 69.4298C128.725 71.9519 127.404 75.7836 125.053 77.178C123.151 78.3057 122.993 78.718 123.708 80.8157C124.193 82.2586 123.187 83.5439 121.163 84.708C118.207 86.4177 115.359 88.3214 112.487 90.1523C112.318 90.2615 112.233 90.5282 112.245 91.1951C116.05 90.6495 119.855 90.1159 124.096 89.5097C123.017 90.0674 122.29 90.5888 121.478 90.8313C117.08 92.1167 112.657 93.3292 108.246 94.5781C107.761 94.7115 107.313 94.9904 106.853 95.2087C107.24 95.5603 107.567 96.0453 108.016 96.2393C110.803 97.4276 113.735 97.3791 116.68 97.1124C117.383 97.0517 118.098 96.9669 118.813 97.0275C113.032 100.168 107.01 98.8221 100.939 98.0218C103.12 100.204 105.835 101.393 108.973 102.714C105.665 103.296 103.072 102.363 100.551 101.162C99.2791 100.556 98.0552 99.8163 96.7828 99.1979C96.4799 99.0524 96.0558 99.1616 95.6923 99.1616C95.7528 99.4647 95.765 99.8042 95.8983 100.083C97.413 103.187 100.103 105.176 102.781 107.164C104.381 108.353 106.004 109.492 107.883 110.838C98.6611 110.026 92.4326 105.03 87.622 97.755C87.4281 97.8884 87.2342 98.0218 87.0403 98.1673C87.6462 100.132 88.034 102.205 88.8822 104.048C91.8389 110.463 95.5105 116.477 99.7032 122.176C102.49 125.959 105.277 129.73 108.04 133.525C108.234 133.792 108.222 134.216 108.307 134.556C107.979 134.544 107.616 134.617 107.337 134.495C101.715 132.131 97.11 128.457 93.2566 123.74C90.5544 120.43 88.7489 116.659 86.9555 112.839C86.5556 112.002 85.9376 111.263 85.4166 110.475C85.2712 110.535 85.1136 110.608 84.9682 110.669C85.2712 112.997 85.4529 115.361 85.9255 117.665C86.8707 122.285 87.9249 126.88 89.0518 131.452C90.0818 135.611 92.8204 138.63 95.9588 141.358C99.0246 144.026 102.054 146.718 105.095 149.398C106.259 150.416 107.434 151.422 108.537 152.55C104.732 151.519 101.085 150.089 98.0794 147.53C95.353 145.202 92.8446 142.583 90.409 139.928C89.6093 139.054 89.5002 137.599 88.8337 136.569C87.7795 134.98 86.4466 133.562 85.3439 131.997C84.0715 130.191 82.4235 128.978 80.3757 128.142C80.0364 128.008 80.1818 126.686 80.1091 125.91C79.9273 120.563 75.9891 119.351 71.6147 118.405C74.838 116.319 78.1582 114.597 78.5459 110.317C78.9458 105.94 76.2072 103.575 73.1779 101.187C74.0988 101.417 75.0197 101.659 75.9407 101.89C76.183 99.9376 76.4496 98.046 76.6677 96.1423C77.1039 92.2622 77.4554 88.3699 77.9401 84.4897C78.3157 81.4826 80.3878 79.2879 81.7934 76.7658C82.2539 75.9412 82.569 74.8136 82.4235 73.9163C81.648 69.3328 82.569 65.1132 84.9561 61.2087C87.0767 57.7287 89.5123 54.4427 92.8325 51.9934C97.8734 48.2708 102.745 44.2573 108.125 41.1047C113.226 38.1097 118.691 35.6361 124.484 34.0719C129.112 32.8229 133.681 31.38 138.273 29.9856C139.606 29.5854 140.903 29.0883 142.212 28.6275C142.151 28.3486 142.078 28.0819 142.018 27.803C137.716 28.3122 133.366 28.6033 129.112 29.3672C117.068 31.5255 106.15 36.3757 96.3708 43.748C89.2821 49.0954 83.2354 55.3157 79.2366 63.4277C76.4617 69.0418 72.5599 73.8556 67.628 77.8086C62.3448 82.0404 56.286 84.7928 49.9606 86.9754C46.5677 88.1516 43.1142 88.7094 39.6244 87.1331C39.0306 86.8663 38.2793 86.9148 37.6007 86.8906C35.977 86.8421 34.3654 86.8663 32.7416 86.8178C32.3781 86.8178 31.445 86.9633 32.3175 86.1145C37.8552 83.9077 43.405 81.6887 48.9428 79.4819C49.3669 79.3121 49.791 79.1424 50.2151 78.9726C50.2999 78.9969 50.3605 78.9726 50.409 78.912C52.1539 78.4391 53.8867 77.9298 55.6438 77.5175C55.9952 77.4327 56.4193 77.7358 56.8192 77.8571C56.6011 78.1481 56.4556 78.5482 56.1648 78.7058C54.3593 79.6516 52.5417 80.5489 50.6998 81.4341C48.7974 82.3435 46.8828 83.2044 44.9682 84.0896C45.053 84.2957 45.1379 84.514 45.2227 84.7201C48.0461 83.6894 50.9664 82.8528 53.6565 81.5553C56.2496 80.2943 58.5399 78.4391 61.0724 77.0447C67.5311 73.504 72.5235 68.5932 75.8074 61.9727C76.0861 61.4149 76.2315 60.7844 76.4375 60.1902C76.3042 60.1175 76.183 60.0568 76.0497 59.9841C75.6377 60.4327 75.2378 60.9056 74.8016 61.3179C72.2085 63.7672 69.6032 66.1923 66.9979 68.6296C66.8646 68.096 66.6223 67.5625 66.6223 67.029C66.6223 65.9619 66.7798 64.907 66.8646 63.84L69.5789 54.1638C69.7486 53.9577 69.9304 53.7516 70.1 53.5454C71.6147 52.0176 73.1294 50.4898 74.632 48.962C74.8016 48.8286 74.9713 48.6831 75.1409 48.5497C75.2378 48.4527 75.3469 48.3678 75.4438 48.2708C75.5529 48.186 75.662 48.0889 75.771 48.0041C76.0497 47.7979 76.3284 47.5797 76.6192 47.3735C76.7283 47.2887 76.8374 47.2038 76.9464 47.1189C77.1161 46.9977 77.2857 46.8764 77.4675 46.7673L77.4917 46.743C77.6008 46.6703 77.7098 46.5854 77.831 46.5126C78.2309 46.2216 78.6308 45.9306 79.0306 45.6517C79.1397 45.5547 79.2609 45.4577 79.3699 45.3607C79.5396 45.2395 79.7092 45.1182 79.8789 45.0091C79.9879 44.9242 80.1091 44.8514 80.2182 44.7666C80.509 44.5726 80.8119 44.3785 81.1027 44.1845C81.3936 43.9905 81.6965 43.7844 81.9873 43.5904C82.2903 43.3964 82.6053 43.2024 82.9083 43.0084C82.9931 43.0084 83.0658 42.9599 83.1021 42.8871C83.2112 42.8144 83.3081 42.7416 83.4172 42.6688C83.6111 42.5718 83.8049 42.4627 83.9867 42.3657C84.326 42.196 84.6532 42.0383 84.9925 41.8686C85.0773 41.8686 85.1258 41.8201 85.1621 41.7473C85.2833 41.6746 85.4045 41.6018 85.5256 41.5169C85.7922 41.3835 86.0588 41.2502 86.3254 41.1047C86.4466 41.044 86.5556 40.9713 86.6768 40.9107C86.8707 40.8258 87.0646 40.7288 87.2584 40.6439C87.4523 40.5348 87.6341 40.4135 87.828 40.3044C88.1551 40.1346 88.4823 39.9527 88.8095 39.783C88.8822 39.783 88.9428 39.7466 88.9913 39.686C89.3063 39.5162 89.6214 39.3465 89.9243 39.1767C90.3242 38.9827 90.7241 38.7766 91.1239 38.5826C91.2088 38.5826 91.2815 38.5583 91.3421 38.4855C91.4511 38.4128 91.5723 38.34 91.6814 38.2673C91.8752 38.1703 92.0691 38.0612 92.263 37.9642C92.6629 37.7701 93.0749 37.5761 93.4748 37.3821C93.5596 37.3821 93.6323 37.3458 93.6808 37.273C93.9473 37.1517 94.2018 37.0305 94.4684 36.9092C94.5411 36.9092 94.5896 36.885 94.6138 36.8122C98.8549 34.9934 103.011 32.9684 107.337 31.3921C119.237 27.0633 131.524 24.2502 144.078 22.589C147.919 22.0797 151.772 21.6311 155.626 21.1582L155.698 21.1703ZM112.342 77.7964C111.93 76.8021 111.433 74.6195 110.221 72.9462C107.41 69.0297 103.387 66.6288 98.8307 65.1132C95.9831 64.1674 93.196 64.3614 90.5423 65.5739C86.9192 67.2351 86.2769 70.6666 85.8286 74.1345C85.671 75.3956 85.8043 76.5718 87.1494 77.2872C87.416 77.4327 87.525 78.0268 87.5735 78.427C87.7189 79.7001 87.5372 81.0824 87.9613 82.2344C89.1246 85.4113 90.5423 88.4669 93.7777 90.1887C97.4251 92.1288 101.012 91.5468 104.623 90.1159C108.367 88.6366 112.342 82.9013 112.33 77.7964H112.342ZM84.9076 68.6417C85.2348 68.3749 85.6226 68.1567 85.8649 67.8293C88.7247 64.1067 92.7598 62.6396 97.1827 62.0939C102.672 61.4149 107.628 63.1609 112.33 65.8043C112.62 65.9619 112.972 66.0226 113.299 66.1317C113.348 65.7316 113.566 65.2102 113.396 64.9434C112.802 64.0097 112.184 63.0276 111.372 62.3C105.18 56.7223 94.6623 56.5768 88.3854 62.0211C86.4587 63.6945 84.8107 65.6952 84.8955 68.6417H84.9076ZM123.054 50.7444C123.114 50.8051 123.187 50.8778 123.248 50.9384C125.526 50.9384 127.816 50.9627 130.094 50.9021C130.361 50.9021 130.869 50.2715 130.821 50.029C130.385 48.2102 129.997 48.0404 128.179 48.6346C127.622 48.8165 127.052 48.9741 126.519 49.1924C125.356 49.6895 124.205 50.223 123.054 50.7444Z" fill="#172647"/>
<path d="M139.243 248.403C137.837 247.736 138.685 247.057 139.243 246.402C143.242 241.709 147.98 237.878 153.02 234.361C159.2 230.045 165.32 225.631 171.33 221.084C178.952 215.312 186.21 209.14 192.645 202.011C201.345 192.371 208.313 181.652 213.087 169.563C214.965 164.809 216.674 159.959 217.958 155.024C221.981 139.54 221.279 124.238 215.717 109.166C211.827 98.6285 206.023 89.2433 198.922 80.6342C192.984 73.4438 186.719 66.5444 180.758 59.3782C175.632 53.2306 171.233 46.6222 169.67 38.5466C168.676 33.4054 168.591 28.2884 170.518 23.317C171.039 21.9589 171.863 20.7221 172.542 19.4368V19.4247C172.639 19.3155 172.724 19.2185 172.821 19.1094C172.905 19.0003 172.978 18.8912 173.063 18.782C173.16 18.685 173.257 18.5759 173.354 18.4789C173.548 18.2728 173.741 18.0545 173.935 17.8484C174.263 17.4846 174.602 17.133 174.929 16.7692C175.389 16.3569 175.85 15.9447 176.31 15.5445C176.419 15.4475 176.528 15.3626 176.638 15.2656C176.747 15.1686 176.856 15.0837 176.965 14.9867C177.449 14.5987 177.946 14.1986 178.431 13.8106C179.11 13.3256 179.788 12.8405 180.467 12.3676C180.661 12.2585 180.867 12.1494 181.06 12.0402C183.811 11.0581 186.55 10.088 189.3 9.10588C189.494 9.08163 189.676 9.04525 189.87 9.021C191.942 9.021 194.002 9.03312 196.074 9.04525C196.268 9.08162 196.462 9.10588 196.644 9.14225C197.043 9.215 197.431 9.28776 197.831 9.36051C198.219 9.48177 198.619 9.5909 199.007 9.71215C199.285 9.80916 199.564 9.90616 199.843 10.0032H199.855C200.267 10.1608 200.679 10.3184 201.091 10.4882C201.891 10.9853 202.702 11.4825 203.502 11.9675C203.429 12.113 203.369 12.2585 203.296 12.3919C203.49 12.3676 203.684 12.3434 203.878 12.307C203.963 12.3313 204.011 12.3798 204.023 12.4646C203.102 13.1558 202.278 14.0652 201.248 14.5139C199.443 15.2899 197.528 15.7992 195.723 14.3683C196.232 14.2592 196.728 14.1501 197.237 14.041C197.286 13.9197 197.334 13.7984 197.383 13.6772C196.644 13.3377 195.941 12.8405 195.177 12.6829C188.428 11.2642 182.902 13.4953 178.346 18.4668C178.007 18.8305 177.837 19.3519 177.595 19.7884C178.152 19.9946 178.698 20.1886 179.255 20.3947C179.461 20.4675 179.667 20.5645 179.873 20.6494C179.291 21.68 178.334 22.165 177.34 21.6073C175.68 20.6857 175.086 21.5466 174.602 22.8926C174.275 22.6258 173.947 22.3712 173.62 22.1044C173.475 22.3954 173.245 22.6864 173.208 22.9896C172.808 26.603 172.639 30.2285 173.608 33.7813C174.917 38.583 177.001 43.0573 179.849 47.1193C182.539 50.951 185.302 54.7827 188.404 58.2748C193.287 63.7677 198.534 68.9452 203.551 74.329C208.701 79.8461 213.79 85.4481 217.91 91.7897C223.351 100.156 227.943 108.923 230.767 118.599C233.02 126.311 234.523 134.108 234.644 142.123C234.741 148.27 234.547 154.418 233.263 160.493C232.584 163.706 232.439 167.065 231.542 170.217C229.906 175.977 228.028 181.676 225.98 187.302C223.254 194.796 219.352 201.707 214.699 208.17C211.548 212.535 208.167 216.743 204.896 221.023C204.799 221.12 204.714 221.217 204.617 221.314C204.508 221.411 204.399 221.508 204.29 221.605C201.042 224.576 197.928 227.729 194.499 230.469C188.561 235.21 181.678 238.326 174.638 241.067C171.73 242.194 168.713 243.092 165.756 244.098C165.174 244.183 164.605 244.341 164.023 244.341C163.514 244.341 163.017 244.195 162.508 244.11C162.824 243.71 163.054 243.177 163.454 242.922C165.901 241.334 168.446 239.915 170.833 238.242C176.48 234.301 182.272 230.518 187.616 226.201C199.637 216.476 208.882 204.387 216.274 190.855C219.885 184.247 223.096 177.444 224.805 170.084C226.223 164.021 227.374 157.898 228.379 151.762C229.749 143.384 229.664 135.005 227.531 126.723C227.374 126.117 227.059 125.547 226.635 124.541C226.513 125.22 226.441 125.402 226.453 125.571C226.538 129.185 226.816 132.81 226.683 136.412C226.55 140.158 226.283 143.941 225.617 147.628C224.72 152.648 223.496 157.631 222.212 162.566C219.17 174.231 214.541 185.253 208.07 195.439C200.812 206.885 191.978 217.022 181.351 225.413C174.214 231.039 166.616 236.083 159.213 241.37C156.68 243.177 154.099 244.911 151.542 246.681C151.445 246.669 151.372 246.681 151.3 246.742C150.791 246.911 150.27 247.081 149.761 247.251C147.398 247.639 145.035 248.087 142.66 248.391C141.557 248.536 140.406 248.391 139.279 248.391L139.243 248.403Z" fill="#172647"/>
<path d="M130.724 237.284C132.857 233.488 134.989 229.693 137.122 225.886C141.218 218.562 146.235 211.954 152.136 205.976C158.57 199.452 165.126 193.05 171.245 186.247C179.594 176.971 186.634 166.774 190.524 154.733C192.451 148.78 193.566 142.705 193.735 136.4C194.087 123.656 191.203 111.748 185.144 100.605C182.769 96.2277 179.982 92.0808 177.631 87.6792C173.863 80.598 169.706 73.6985 167.113 66.0352C165.804 62.1551 164.096 58.3598 163.32 54.3705C161.442 44.7428 161.285 35.1394 165.477 25.9241C165.792 25.2329 166.192 24.5902 166.556 23.9233C166.689 23.9597 166.822 23.9961 166.968 24.0325C166.653 27.3912 166.325 30.7621 166.01 34.1209C166.01 35.6851 166.01 37.2493 166.01 38.8135C166.18 43.8698 167.743 48.5624 169.694 53.1579C172.639 60.118 177.231 65.9746 182.006 71.7221C186.744 77.4332 191.566 83.0716 196.026 88.9888C201.466 96.1914 205.611 104.158 208.604 112.694C210.518 118.163 211.827 123.741 211.681 129.609C211.621 132.289 212.13 134.981 211.924 137.636C211.185 147.179 209.003 156.382 205.271 165.258C201.721 173.698 196.91 181.349 191.288 188.479C185.81 195.439 179.485 201.623 172.796 207.443C161.248 217.471 149.724 227.523 138.273 237.66C136.165 239.527 134.42 241.807 132.505 243.892L132.493 243.929C132.287 244.171 132.081 244.426 131.875 244.668C130.857 245.662 129.852 246.681 128.81 247.639C128.519 247.906 128.082 248.003 127.707 248.185C127.513 247.7 127.077 247.166 127.174 246.754C127.537 245.19 127.986 243.625 128.555 242.122C129.185 240.473 129.985 238.896 130.712 237.296L130.724 237.284ZM134.735 234.628C134.481 234.907 134.117 235.15 133.996 235.477C133.778 236.12 133.705 236.811 133.572 237.478C134.117 237.09 134.687 236.726 135.195 236.302C135.401 236.132 135.474 235.792 135.607 235.538C135.826 235.332 136.08 235.162 136.238 234.931C139.812 229.863 144.332 225.667 148.828 221.472C155.008 215.688 161.272 210.001 167.525 204.302C176.298 196.324 184.599 187.909 191.057 177.893C193.832 173.601 196.377 169.114 198.558 164.482C201.769 157.68 203.708 150.477 204.665 142.972C205.538 136.121 205.574 129.342 204.059 122.601C202.496 115.629 200.085 108.972 197.104 102.436C194.656 97.0886 191.736 92.0808 188.428 87.2912C184.138 81.083 179.521 75.1172 175.014 69.0666C174.456 68.3148 173.669 67.7328 172.99 67.078C172.845 67.1629 172.699 67.2478 172.542 67.3205C173.099 68.9696 173.402 70.7642 174.25 72.2314C177.183 77.2756 180.139 82.3076 183.387 87.1579C188.925 95.4396 193.626 104.121 196.886 113.567C199.479 121.061 200.921 128.736 200.485 136.678C199.782 149.483 195.82 161.33 188.997 172.097C185.338 177.869 181.291 183.531 176.662 188.539C169.415 196.384 161.636 203.745 153.893 211.117C146.513 218.162 139.8 225.692 134.735 234.604V234.628Z" fill="#172647"/>
<path d="M195.686 14.3681C197.48 15.7989 199.406 15.2896 201.212 14.5136C202.242 14.0649 203.066 13.1676 203.987 12.4644C207.404 14.3317 209.585 17.2903 210.833 20.831C213.754 29.1127 212.142 36.7396 207.04 43.736C206.798 44.0755 206.774 44.5727 206.641 44.9971C205.611 44.791 204.459 44.7788 203.551 44.3302C200.024 42.572 196.571 40.6804 193.093 38.8252C191.639 38.0492 190.221 37.2489 188.767 36.485C187.931 36.0485 187.774 36.6062 187.725 37.2731C184.974 34.46 182.418 31.5014 180.963 27.7546C180.636 26.8937 180.03 26.1419 179.558 25.3295L179.11 25.4871C179.11 26.0813 178.916 26.7725 179.146 27.2696C180.709 30.689 182.018 34.3024 184.066 37.4065C188.295 43.8088 193.893 49.0106 199.746 53.9457C208.834 61.609 217.449 69.7574 224.599 79.3244C229.991 86.5391 234.414 94.3358 238.001 102.605C242.593 113.179 245.453 124.201 246.011 135.708C246.265 140.922 245.901 146.184 245.465 151.398C245.102 155.594 244.447 159.801 243.466 163.888C242.097 169.599 240.291 175.201 238.704 180.863C238.413 181.906 238.243 182.997 238.013 184.065C238.158 184.113 238.316 184.174 238.461 184.222C239.709 181.894 241.2 179.651 242.157 177.201C243.757 173.103 245.005 168.871 246.435 164.7C249.258 156.455 250.603 147.979 250.53 139.285C250.506 136.096 250.373 132.907 250.288 129.718C250.458 130.215 250.773 130.712 250.773 131.209C250.821 135.732 250.797 140.243 250.845 144.766C250.845 145.481 250.967 146.245 251.245 146.9C251.585 147.688 252.275 147.93 253.051 147.336C253.402 147.07 253.705 146.742 254.032 146.451C252.687 153.254 251.451 160.068 248.943 166.604C246.241 173.661 243.114 180.439 239.067 186.865C234.778 193.668 230.403 200.398 225.289 206.594C222.284 210.243 218.794 213.517 215.499 216.925C215.111 217.325 214.505 217.531 214.008 217.822C214.202 217.325 214.311 216.779 214.602 216.355C216.08 214.16 217.74 212.074 219.097 209.819C222.163 204.726 225.083 199.549 228.064 194.42C232.039 187.569 234.511 180.112 236.292 172.485C237.686 166.483 238.401 160.311 239.176 154.187C240.158 146.512 240 138.836 238.885 131.149C237.456 121.291 234.353 111.99 230.233 102.993C227.289 96.5547 223.508 90.6011 219.328 84.9021C213.051 76.3779 205.647 68.8722 198.134 61.4635C192.16 55.5705 186.441 49.4714 181.909 42.3295C178.104 36.3516 175.971 29.7917 174.565 22.9165C175.05 21.5706 175.644 20.7097 177.304 21.6312C178.31 22.189 179.255 21.704 179.837 20.6733C180.879 19.9579 181.897 19.2061 182.975 18.5271C186.865 16.0899 190.924 14.1134 195.698 14.3802L195.686 14.3681Z" fill="#172647"/>
<path d="M32.366 86.1392C31.5056 86.9759 32.4266 86.8303 32.7901 86.8425C34.4138 86.891 36.0255 86.8667 37.6492 86.9152C38.3278 86.9395 39.0791 86.891 39.6728 87.1577C43.1627 88.734 46.6162 88.1641 50.0091 87.0001C56.3345 84.8175 62.3811 82.0771 67.6765 77.8332C72.6083 73.8803 76.5223 69.0665 79.2851 63.4524C83.2839 55.3404 89.3306 49.12 96.4193 43.7727C106.186 36.4004 117.116 31.5502 129.161 29.3918C133.426 28.6279 137.764 28.3369 142.066 27.8276C142.127 28.1065 142.199 28.3733 142.26 28.6522C140.951 29.1008 139.643 29.598 138.322 30.0102C133.729 31.3925 129.161 32.8476 124.532 34.0965C118.728 35.6607 113.263 38.1343 108.173 41.1293C102.805 44.2819 97.9219 48.2955 92.881 52.018C89.5608 54.4674 87.1252 57.7534 85.0046 61.2334C82.6174 65.1378 81.7086 69.3575 82.472 73.9409C82.6174 74.8382 82.3024 75.9659 81.8419 76.7904C80.4363 79.3125 78.3642 81.5072 77.9885 84.5144C77.5038 88.3945 77.1524 92.2868 76.7162 96.167C76.5102 98.0707 76.2436 99.9623 75.9891 101.914C75.0561 101.672 74.1473 101.442 73.2263 101.211C76.2557 103.6 78.9943 105.964 78.5944 110.342C78.2066 114.622 74.8864 116.344 71.6632 118.429C76.0497 119.363 79.9758 120.588 80.1576 125.935C79.1276 128.918 76.9464 130.567 73.9776 131.331C72.5235 131.707 71.1058 132.216 69.6638 132.665C65.1439 132.98 60.6241 133.477 56.1042 133.526C53.0506 133.562 49.9849 132.944 46.9313 132.604C46.6525 132.604 46.3617 132.604 46.083 132.616C45.9134 132.592 45.7316 132.58 45.562 132.556C42.5326 132.095 39.5153 131.44 36.4738 131.258C34.7047 131.149 36.3526 132.543 36.0497 133.174C35.6377 132.362 35.2378 131.537 34.8137 130.737C34.2563 129.694 33.6625 128.663 33.093 127.621C35.7225 127.766 38.4005 127.645 40.9573 128.118C49.1851 129.633 57.4129 130.7 65.7983 129.997C68.7186 129.755 71.748 129.767 74.2442 127.936C74.947 127.414 75.2863 126.42 75.7952 125.632C74.9834 125.183 74.2078 124.395 73.3717 124.347C71.542 124.25 69.688 124.516 67.8461 124.638C67.3009 124.238 66.7798 123.546 66.1982 123.474C64.2593 123.243 62.2599 123.449 60.3454 123.098C55.1833 122.14 50.5302 120.054 46.8222 116.198C44.532 113.822 44.3381 112.003 45.7437 109.032C46.7253 106.959 47.731 104.837 48.2642 102.63C49.9122 95.7547 45.6347 89.9708 38.9943 89.8132C35.7952 88.4309 32.7901 86.2726 28.9852 87.1941C30.1121 86.8425 31.239 86.4908 32.3781 86.1392H32.366Z" fill="#7289B5"/>
<path d="M174.553 22.9045C175.959 29.7675 178.092 36.3395 181.897 42.3174C186.428 49.4472 192.148 55.5463 198.122 61.4514C205.635 68.8601 213.039 76.3537 219.315 84.89C223.508 90.589 227.277 96.5427 230.221 102.981C234.341 111.978 237.455 121.279 238.873 131.137C239.988 138.824 240.133 146.5 239.164 154.175C238.389 160.299 237.674 166.47 236.28 172.473C234.511 180.099 232.027 187.557 228.052 194.408C225.071 199.549 222.151 204.714 219.085 209.807C217.728 212.074 216.068 214.16 214.59 216.343C214.299 216.767 214.19 217.325 213.996 217.81C213.354 217.98 212.711 218.283 212.069 218.283C209.488 218.307 207.416 219.544 205.368 220.914C205.223 221.011 205.005 221.011 204.811 221.047C208.083 216.767 211.463 212.559 214.614 208.194C219.279 201.744 223.169 194.82 225.895 187.326C227.943 181.7 229.809 176.001 231.457 170.241C232.354 167.089 232.487 163.742 233.178 160.517C234.462 154.442 234.656 148.294 234.559 142.147C234.438 134.132 232.936 126.335 230.682 118.623C227.858 108.947 223.266 100.18 217.825 91.8137C213.693 85.4599 208.604 79.8701 203.466 74.353C198.449 68.9692 193.202 63.7917 188.319 58.2988C185.217 54.8067 182.454 50.9871 179.764 47.1433C176.928 43.0813 174.832 38.607 173.523 33.8053C172.554 30.2525 172.724 26.627 173.123 23.0136C173.16 22.7104 173.39 22.4194 173.535 22.1284C173.863 22.3952 174.19 22.6498 174.517 22.9166L174.553 22.9045Z" fill="#7289B5"/>
<path d="M254.044 146.427C253.717 146.718 253.414 147.046 253.063 147.313C252.299 147.907 251.609 147.664 251.257 146.876C250.979 146.221 250.857 145.457 250.857 144.742C250.809 140.219 250.833 135.708 250.785 131.186C250.785 130.689 250.47 130.191 250.3 129.694C250.203 129.015 250.082 128.348 249.997 127.669C248.979 118.89 246.968 110.378 243.442 102.254C239.261 92.6265 234.281 83.4839 227.737 75.2143C220.018 65.4533 211.039 57.0018 201.188 49.4355C196.389 45.7493 191.554 42.0632 187.737 37.2857C187.774 36.6188 187.931 36.0611 188.779 36.4976C190.233 37.2615 191.663 38.0618 193.105 38.8378C196.583 40.693 200.036 42.5846 203.563 44.3428C204.472 44.8036 205.623 44.8036 206.653 45.0097C207.246 45.1916 207.84 45.3856 208.434 45.5675C208.701 46.0525 208.846 46.6951 209.246 47.0104C210.821 48.2593 212.505 49.3749 214.093 50.6117C215.983 52.0667 217.91 53.4854 219.643 55.1102C223.823 59.0389 227.895 63.0767 231.99 67.0781C232.148 67.2357 232.148 67.5631 232.318 67.7208C233.251 68.6423 234.184 69.5638 235.165 70.4369C235.335 70.5945 235.868 70.6551 235.941 70.546C236.692 69.5396 237.528 70.1216 238.352 70.352C240.182 73.3349 242.036 76.3056 243.841 79.3127C244.787 80.8891 245.792 82.4654 246.483 84.1629C248.349 88.7464 250.373 93.3056 251.73 98.0588C253.22 103.261 254.275 108.62 255.074 113.967C256.189 121.461 256.31 129.027 255.365 136.569C254.953 139.868 254.481 143.154 254.032 146.44L254.044 146.427Z" fill="#172647"/>
<path d="M28.9731 87.1941C32.778 86.2726 35.771 88.4309 38.9822 89.8132C39.8304 90.9288 40.6423 92.0686 41.539 93.1478C43.0294 94.9423 44.5683 96.7369 44.2291 99.259C43.708 103.066 41.4057 105.831 38.5823 108.244C36.5586 109.978 34.4623 111.663 32.5841 113.543C31.1421 114.986 31.1906 116.671 32.681 118.114C33.8928 119.29 35.2621 120.479 36.7768 121.109C44.8834 124.492 53.2687 126.602 62.1509 125.777C64.0776 125.596 65.9558 125.026 67.8583 124.626C69.7001 124.504 71.5541 124.238 73.3839 124.335C74.2079 124.383 74.9955 125.171 75.8074 125.62C75.2984 126.396 74.9592 127.402 74.2563 127.924C71.7601 129.767 68.7428 129.743 65.8104 129.985C57.4251 130.688 49.1972 129.621 40.9694 128.106C38.4005 127.633 35.7225 127.754 33.1051 127.608C30.5726 126.444 28.5732 124.783 27.7734 121.97C28.1733 121.364 28.8761 120.782 28.9004 120.163C29.0094 117.605 27.5795 115.871 25.4953 114.586C25.0106 113.591 24.3442 112.646 24.1018 111.603C23.9079 110.778 24.3078 109.832 24.332 108.947C24.3684 107.456 24.332 105.964 24.2593 104.485C24.2593 104.327 23.714 104.206 23.4475 104.036C22.8052 103.636 22.1872 103.212 21.5571 102.8C20.5756 100.726 20.1636 98.5436 20.3817 96.2398C20.5756 94.2391 21.3632 93.2084 23.2172 92.8204C28.3187 91.7412 34.0261 94.045 35.5408 99.6592C35.7589 100.496 36.0982 101.454 36.7041 101.975C37.2372 102.436 38.2309 102.412 39.0185 102.533C39.1033 102.545 39.382 102.133 39.3457 101.963C39.0185 100.375 38.5096 98.8225 38.2915 97.2219C37.831 93.8753 36.0255 91.5836 32.9113 90.5044C31.2269 89.9103 29.3729 89.8375 27.6038 89.4737C27.0464 89.3646 26.5253 89.11 25.98 88.9281L25.9921 88.916C26.9858 88.3339 27.9673 87.764 28.9609 87.182L28.9731 87.1941ZM29.276 105.698C28.5368 104.267 27.7977 102.836 27.0585 101.405C26.598 103.042 27.6644 105.104 28.9246 105.783C30.9846 109.153 33.0567 110.16 35.3954 108.753C34.8501 108.414 34.4017 108.074 33.9049 107.832C32.3781 107.104 30.827 106.413 29.2881 105.71L29.276 105.698Z" fill="#72181A"/>
<path d="M151.506 246.681C154.063 244.911 156.644 243.177 159.176 241.37C166.58 236.084 174.178 231.039 181.315 225.413C191.942 217.022 200.776 206.873 208.034 195.439C214.505 185.253 219.134 174.243 222.175 162.567C223.46 157.619 224.671 152.648 225.58 147.628C226.247 143.942 226.513 140.159 226.647 136.412C226.78 132.811 226.501 129.185 226.416 125.572C226.416 125.402 226.477 125.22 226.598 124.541C227.022 125.547 227.337 126.117 227.495 126.724C229.628 135.005 229.712 143.384 228.343 151.763C227.337 157.898 226.174 164.034 224.768 170.084C223.048 177.445 219.837 184.247 216.238 190.855C208.846 204.387 199.6 216.477 187.58 226.201C182.236 230.53 176.444 234.301 170.797 238.242C168.41 239.903 165.865 241.334 163.417 242.922C163.017 243.189 162.787 243.71 162.472 244.111C162.981 244.195 163.478 244.353 163.987 244.341C164.568 244.341 165.138 244.183 165.72 244.098C165.611 244.244 165.526 244.511 165.392 244.535C160.776 245.263 156.147 245.978 151.518 246.681H151.506Z" fill="#7289B5"/>
<path d="M238.364 70.3521C237.54 70.1217 236.704 69.5397 235.953 70.5461C235.868 70.6553 235.347 70.5825 235.177 70.437C234.196 69.564 233.263 68.6424 232.33 67.7209C232.172 67.5633 232.172 67.2359 232.003 67.0782C227.895 63.0768 223.823 59.039 219.655 55.1104C217.922 53.4855 215.983 52.0669 214.105 50.6118C212.518 49.375 210.833 48.2595 209.258 47.0105C208.858 46.6953 208.713 46.0526 208.446 45.5676C210.627 44.6946 212.106 43.1061 212.93 40.9478C213.329 39.8929 213.875 40.0262 214.565 40.4749C216.868 41.9663 219.243 43.3486 221.4 45.0219C224.453 47.3864 227.374 49.9449 230.294 52.4913C232.318 54.2616 234.232 56.141 236.195 57.972C236.123 58.0932 236.05 58.2266 235.977 58.3479C232.657 56.8564 229.337 55.3771 225.641 53.7281C230.112 59.5604 234.244 64.9563 238.388 70.3521H238.364Z" fill="#72181A"/>
<path d="M129.149 21.4255C128.955 21.4618 128.773 21.4861 128.579 21.5225C128.373 21.5952 128.179 21.6801 127.973 21.7529C127.792 21.8014 127.598 21.8499 127.416 21.8984C123.732 22.8078 120.036 23.6808 116.377 24.663C113.566 25.4148 110.779 26.2999 107.992 27.1123C109.409 22.8442 112.099 19.6188 116.001 17.3998C116.304 17.23 116.728 16.8905 116.728 16.6238C116.728 15.29 116.547 14.0289 114.656 14.8049C114.608 14.8171 114.475 14.5988 114.378 14.4897C120.4 12.2222 126.023 12.5617 129.706 17.327C130.094 17.8363 130.482 18.3577 130.87 18.867C130.87 18.9519 130.906 19.0246 130.991 19.061C131.124 19.3156 131.269 19.5703 131.403 19.8249C131.475 19.9583 131.548 20.0917 131.633 20.225C131.209 20.5403 130.773 20.8677 130.349 21.183C130.167 21.2072 129.985 21.2193 129.791 21.2436C129.585 21.3042 129.379 21.3527 129.173 21.4133L129.149 21.4255Z" fill="#172647"/>
<path d="M107.979 27.1122C110.779 26.2876 113.554 25.4025 116.365 24.6628C120.024 23.6928 123.72 22.8197 127.404 21.8982C127.343 22.0316 127.295 22.165 127.222 22.2983C126.931 22.8804 126.628 23.4624 126.338 24.0323C127.028 24.1535 127.755 24.4688 128.422 24.3839C131.112 24.0202 133.79 23.523 136.48 23.1107C138.491 22.8076 140.515 22.6136 142.539 22.3105C144.623 21.9952 146.695 21.4738 148.791 21.2919C153.032 20.9282 157.262 20.0309 161.551 20.7948C159.6 20.916 157.649 21.0494 155.686 21.1707C151.833 21.6436 147.992 22.0922 144.138 22.6015C131.584 24.2627 119.297 27.0758 107.398 31.4046C103.072 32.9809 98.9155 35.0059 94.6744 36.8247C96.4193 35.8304 98.1642 34.8361 99.8849 33.8297C101.145 33.1022 102.442 32.4231 103.605 31.5501C104.175 31.1136 104.55 30.2163 103.338 29.9374C102.296 29.6949 102.09 28.9552 102.357 28.1792C102.842 26.712 103.496 25.2933 104.114 23.8747C104.187 23.7049 104.49 23.62 104.683 23.4988C104.199 24.9174 103.678 26.324 103.229 27.7548C102.914 28.7855 103.338 29.125 104.332 28.7006C105.35 28.2641 106.344 27.7912 107.349 27.3426C107.555 27.2577 107.749 27.1607 107.955 27.0758V27.1243L107.979 27.1122Z" fill="#7289B5"/>
<path d="M126.665 189.145C126.519 187.945 126.313 186.745 126.241 185.544C126.216 185.059 126.471 184.55 126.604 184.053C127.065 184.368 127.634 184.598 127.961 185.011C130.385 187.981 132.202 191.292 133.717 194.82C135.753 199.525 136.007 204.387 135.341 209.359C135.123 210.947 134.82 212.523 134.408 214.075C134.238 214.73 133.754 215.349 133.269 215.846C133.002 216.113 132.312 216.27 132.021 216.1C131.645 215.894 131.221 215.312 131.233 214.9C131.306 212.208 131.645 209.528 131.597 206.849C131.548 203.842 131.185 200.834 130.918 197.827C130.894 197.597 130.603 197.403 130.433 197.185C129.706 195.305 129.04 193.402 128.228 191.558C127.84 190.698 127.186 189.958 126.641 189.158L126.665 189.145Z" fill="#172647"/>
<path d="M67.0585 68.6421C69.6638 66.2048 72.2691 63.7797 74.8622 61.3304C75.3106 60.9181 75.6983 60.4452 76.1103 59.9966C76.2436 60.0693 76.3648 60.13 76.4981 60.2027C76.2921 60.7969 76.1467 61.4274 75.868 61.9852C72.5841 68.6057 67.5917 73.5165 61.133 77.0572C58.6005 78.4516 56.3102 80.3189 53.7171 81.5679C51.027 82.8774 48.1067 83.7019 45.2833 84.7326C45.1985 84.5265 45.1136 84.3082 45.0288 84.1021C46.9434 83.2169 48.858 82.356 50.7604 81.4466C52.5902 80.5736 54.4199 79.6642 56.2254 78.7184C56.5162 78.5729 56.6617 78.1606 56.8798 77.8696C56.4799 77.7483 56.0558 77.4452 55.7044 77.5301C53.9473 77.9423 52.2145 78.4516 50.4696 78.9245C51.6692 78.3303 52.8325 77.6513 54.0806 77.1784C55.1106 76.7904 56.2375 76.6207 57.3281 76.3903C59.0246 76.0386 59.5941 74.8746 59.5941 73.2861C59.5941 71.6249 59.6183 69.9516 59.6305 68.2904C59.788 70.0365 59.9334 71.7704 60.1273 73.9894C62.5508 72.1221 64.8046 70.376 67.0706 68.6299L67.0585 68.6421Z" fill="#7289B5"/>
<path d="M25.9922 88.9399C26.5375 89.1218 27.0585 89.3765 27.6159 89.4856C29.3851 89.8372 31.2391 89.9221 32.9234 90.5163C36.0376 91.6075 37.831 93.8871 38.3036 97.2338C38.5217 98.8343 39.0306 100.386 39.3578 101.975C39.3942 102.145 39.1155 102.557 39.0306 102.545C38.2309 102.424 37.2494 102.448 36.7162 101.987C36.1103 101.466 35.7831 100.496 35.5529 99.671C34.0382 94.0569 28.343 91.7531 23.2294 92.8322C21.3754 93.2202 20.5877 94.2509 20.3939 96.2516C20.1757 98.5555 20.5877 100.726 21.5693 102.812C21.024 101.841 20.309 100.932 19.9697 99.9014C18.8065 96.4578 20.2242 93.4749 23.5565 91.9834C24.4169 91.5954 25.2288 91.2074 25.2166 90.007C25.2166 89.6553 25.7256 89.2916 25.9922 88.9399Z" fill="#172647"/>
<path d="M67.0586 68.642C64.8047 70.388 62.5387 72.122 60.1152 74.0014C59.9213 71.7825 59.7638 70.0485 59.6184 68.3025C59.4972 66.908 59.3639 66.5564 59.9698 65.0771C60.6484 63.428 61.3391 61.7789 62.2964 60.2632C62.8295 59.4145 64.4169 59.2326 65.5196 58.7476C65.9922 60.4451 66.4527 62.1548 66.9253 63.8524C66.8404 64.9194 66.695 65.9744 66.6829 67.0414C66.6829 67.5749 66.9253 68.1085 67.0586 68.642Z" fill="#72181A"/>
<path d="M107.374 27.3425C106.368 27.8032 105.362 28.264 104.356 28.7005C103.375 29.1249 102.939 28.7975 103.254 27.7547C103.69 26.3239 104.211 24.9174 104.708 23.4987C104.817 23.3047 104.926 23.1107 105.035 22.9166C105.411 22.3225 105.786 21.7283 106.174 21.1342C106.295 20.9644 106.416 20.7947 106.525 20.6371C106.61 20.5158 106.695 20.3945 106.78 20.2733C108.985 17.9209 111.239 15.6292 114.378 14.5137C114.475 14.6228 114.608 14.8411 114.656 14.8289C116.559 14.0529 116.728 15.314 116.728 16.6478C116.728 16.9145 116.304 17.2419 116.001 17.4238C112.099 19.6428 109.409 22.8681 107.992 27.1363V27.0878C107.786 27.1727 107.592 27.2697 107.386 27.3546L107.374 27.3425Z" fill="#172647"/>
<path d="M86.4224 161.778C85.8286 160.298 85.4166 158.698 84.6047 157.352C83.502 155.521 82.0843 153.884 80.8119 152.15C80.6544 151.944 80.5696 151.677 80.412 151.386C82.9931 151.641 90.8695 158.928 92.8931 162.372C91.7904 161.414 90.6635 160.492 89.585 159.51C88.8337 158.819 88.1794 158.031 87.416 157.352C86.8465 156.843 86.3618 157 86.4102 157.813C86.4587 158.625 86.7253 159.425 86.7616 160.238C86.7859 160.747 86.5435 161.269 86.4224 161.79V161.778Z" fill="#172647"/>
<path d="M112.766 174.946C111.3 171.733 109.846 168.52 108.319 165.173C108.658 165.331 108.949 165.392 109.131 165.561C112.075 168.326 114.608 171.418 116.425 175.056C116.51 175.213 116.486 175.432 116.51 175.626C115.408 174.716 114.317 173.807 113.19 172.873C113.105 173.273 112.936 174.11 112.754 174.946H112.766Z" fill="#172647"/>
<path d="M95.559 157.934C97.7038 160.202 99.8486 162.469 101.993 164.737C101.896 164.712 101.775 164.712 101.715 164.652C100.721 163.779 100.055 163.561 100.2 165.319C100.212 165.513 99.994 165.719 99.8729 165.925C98.5399 163.755 97.1828 161.608 95.8983 159.414C95.6438 158.989 95.6802 158.407 95.5711 157.898V157.934H95.559Z" fill="#172647"/>
<path d="M25.4832 114.598C27.5674 115.883 28.9973 117.617 28.8882 120.175C28.864 120.794 28.1491 121.388 27.7613 121.982C26.9979 119.521 26.2466 117.059 25.4832 114.598Z" fill="#72181A"/>
<path d="M66.9252 63.8524C66.4526 62.1548 65.9922 60.4452 65.5196 58.7476C66.3315 58.0443 67.2282 57.4017 67.9431 56.6014C68.5974 55.886 69.07 54.9887 69.6274 54.1763C68.7186 57.4017 67.8219 60.627 66.9131 63.8524H66.9252Z" fill="#7289B5"/>
<path d="M130.312 21.1947C130.736 20.8795 131.172 20.5521 131.597 20.2368C131.633 20.6006 131.657 20.9765 131.694 21.3402C131.233 21.2917 130.773 21.2432 130.312 21.1947Z" fill="#172647"/>
<path d="M106.15 21.1348C105.774 21.7289 105.398 22.3231 105.011 22.9172C105.386 22.3231 105.762 21.7289 106.15 21.1348Z" fill="#7289B5"/>
<path d="M79.0912 45.6519C78.6914 45.9429 78.2915 46.2339 77.8916 46.5128C78.2915 46.2218 78.6914 45.9307 79.0912 45.6519Z" fill="#7289B5"/>
<path d="M201.054 10.4879C200.642 10.3303 200.23 10.1727 199.818 10.0029C200.23 10.1606 200.642 10.3182 201.054 10.4879Z" fill="#172647"/>
<path d="M76.692 47.374C76.4133 47.5802 76.1346 47.7984 75.8438 48.0046C76.1225 47.7984 76.4012 47.5802 76.692 47.374Z" fill="#7289B5"/>
<path d="M89.997 39.1895C89.682 39.3592 89.3669 39.529 89.064 39.6987C89.379 39.529 89.6941 39.3592 89.997 39.1895Z" fill="#7289B5"/>
<path d="M203.841 12.319C203.648 12.3433 203.454 12.3675 203.26 12.4039C203.332 12.2584 203.393 12.1129 203.466 11.9795C203.587 12.1007 203.72 12.2099 203.841 12.3311V12.319Z" fill="#172647"/>
<path d="M84.0594 42.3662C83.8655 42.4632 83.6716 42.5723 83.4899 42.6693C83.6837 42.5723 83.8776 42.4632 84.0594 42.3662Z" fill="#7289B5"/>
<path d="M77.5402 46.7676C77.3705 46.8888 77.2009 47.0101 77.0191 47.1192C77.1887 46.998 77.3584 46.8767 77.5402 46.7676Z" fill="#7289B5"/>
<path d="M77.8904 46.5132C77.7817 46.5858 77.6731 46.6706 77.5523 46.7432C77.661 46.6706 77.7697 46.5858 77.8904 46.5132Z" fill="#7289B5"/>
<path d="M85.5984 41.5176C85.4772 41.5903 85.356 41.6631 85.2349 41.748C85.356 41.6752 85.4772 41.6025 85.5984 41.5176Z" fill="#7289B5"/>
<path d="M165.1 20.8312C164.992 20.8312 164.895 20.807 164.786 20.7949C164.895 20.7949 164.992 20.8191 165.1 20.8312Z" fill="#7289B5"/>
<path d="M146.259 171.127C144.09 170.908 141.909 170.678 139.412 170.423C141.436 169.768 143.132 169.296 144.793 168.677C151.736 166.07 156.704 161.135 160.255 154.818C162.278 151.216 163.999 147.385 165.271 143.468C165.986 141.274 166.859 139.333 168.676 138.242C173.257 135.502 176.432 131.209 180.515 127.935C181.145 127.426 181.715 126.747 182.09 126.032C182.345 125.547 182.187 124.856 182.224 124.261C181.618 124.237 180.963 124.067 180.418 124.237C179.352 124.577 178.31 125.062 177.304 125.559C169.9 129.257 163.03 133.768 156.886 139.346C156.377 139.806 155.662 140.049 155.044 140.4C154.971 139.649 154.729 138.885 154.838 138.169C155.432 134.229 158.086 131.706 161.006 129.366C166.277 125.159 172.154 122.006 178.213 119.12C180.152 118.199 182.09 117.289 184.053 116.404C185.859 115.592 186.259 115.713 186.647 117.532C187.349 120.781 187.931 124.055 188.573 127.329C188.319 129.512 188.089 131.694 187.822 133.877C187.204 138.885 186.065 143.759 184.199 148.464C182.624 152.429 180.043 155.788 177.243 158.88C172.82 163.766 167.077 166.822 160.873 168.883C156.159 170.447 151.251 171.042 146.283 171.139L146.259 171.127Z" fill="#172647"/>
<path d="M149.264 131.901C148.646 130.628 147.725 129.161 147.216 127.56C146.186 124.359 145.968 121.037 146.271 117.666C146.525 114.768 148.234 112.961 150.573 111.7C157.831 107.783 165.308 104.352 173.281 102.121C175.014 101.636 176.686 100.945 178.382 100.375C179.4 100.035 180.079 100.205 180.539 101.369C181.497 103.782 182.611 106.134 183.714 108.487C184.259 109.639 184.126 110.293 182.805 110.815C174.844 113.967 167.295 117.933 160.364 122.952C156.607 125.669 153.129 128.761 149.264 131.901Z" fill="#72181A"/>
<path d="M146.259 171.127C151.227 171.018 156.135 170.436 160.848 168.871C167.053 166.81 172.796 163.755 177.219 158.868C180.018 155.776 182.599 152.429 184.175 148.452C186.041 143.747 187.18 138.873 187.798 133.865C188.064 131.683 188.307 129.5 188.549 127.317C189.628 137.624 188.101 147.555 184.405 157.207C180.951 166.228 175.389 173.904 169.222 181.191C167.598 183.119 167.525 183.058 166.192 180.827C163.49 176.292 159.152 174.134 154.317 172.824C151.675 172.109 148.949 171.685 146.259 171.139V171.127Z" fill="#72181A"/>
<path d="M163.03 79.8099C163.26 80.1494 163.417 80.6708 163.732 80.8163C168.907 83.0231 171.924 87.2792 174.481 91.996C175.002 92.9539 174.25 93.3177 173.535 93.5845C170.252 94.8091 166.847 95.4275 163.332 95.4154C163.066 95.1971 162.799 94.9789 162.533 94.7606C162.206 94.3847 161.89 93.9846 161.551 93.6208C160.291 92.3234 159.031 91.0381 157.734 89.7649C157.298 89.3405 156.765 89.001 156.268 88.613C156.135 88.4432 156.001 88.2856 155.868 88.1159L155.844 88.2129C155.674 87.8491 155.614 87.3034 155.323 87.1458C153.687 86.2364 152.051 85.2906 150.003 85.6908C148.076 86.0666 147.107 84.5995 147.87 82.623C148.101 82.4775 148.416 82.3926 148.561 82.1865C150.282 79.7856 152.645 78.9247 155.505 79.1551C156.377 79.2279 157.262 79.2279 158.134 79.3006C159.77 79.4582 161.406 79.6401 163.054 79.8099H163.03Z" fill="#72181A"/>
<path d="M147.87 82.6107C147.107 84.5872 148.076 86.0544 150.003 85.6785C152.051 85.2783 153.675 86.212 155.323 87.1335C155.601 87.2912 155.674 87.8368 155.844 88.2006C154.935 87.7519 154.062 87.2548 153.129 86.8668C150.379 85.7391 148.27 86.3818 146.949 89.0009C146.15 90.6014 145.823 92.4203 145.168 94.1057C144.793 95.0757 144.199 95.9609 143.702 96.8824C143.484 96.8339 143.266 96.7854 143.048 96.7248C142.454 94.2876 141.8 91.8625 141.266 89.401C140.939 87.8732 140.794 86.3211 140.539 84.7812C139.255 76.9845 143.338 72.3404 151.288 72.6193C155.553 72.7648 159.152 74.4624 162.205 77.3846C163.139 78.2819 164.108 79.1428 165.065 80.028C164.993 80.1371 164.908 80.2584 164.835 80.3675C164.229 80.1735 163.635 79.9674 163.029 79.7734L163.054 79.7855C160.206 78.7063 157.322 77.809 154.208 77.9303C150.924 78.0637 148.961 79.4945 147.87 82.5865V82.6107Z" fill="#172647"/>
<path d="M162.533 94.7367C162.799 94.9549 163.066 95.1732 163.332 95.3914C159.964 97.0769 156.631 98.823 153.226 100.424C149.955 101.963 146.404 102.339 142.72 102.351C143.435 101.818 144.15 101.284 144.853 100.739C146.319 99.5869 147.228 98.2652 146.331 96.2887C146.235 96.0826 146.586 95.4157 146.816 95.3672C152.015 94.3123 157.213 92.833 162.533 94.7245V94.7367Z" fill="#172647"/>
<path d="M132.869 138.497C131.863 138.364 130.845 138.255 129.84 138.097C128.373 137.867 126.956 137.212 125.429 138.097C125.162 138.255 124.399 137.539 123.853 137.224C123.89 136.775 123.878 136.314 123.975 135.866C124.132 135.09 124.12 133.974 124.605 133.659C125.114 133.332 126.253 133.55 126.895 133.926C128.276 134.726 129.512 135.757 130.785 136.727C131.5 137.272 132.178 137.891 132.869 138.485V138.497Z" fill="#172647"/>
<path d="M136.419 116.368C135.923 117.641 135.632 119.048 134.893 120.151C133.826 121.74 131.996 121.861 130.421 120.757C129.791 120.321 129.173 119.848 128.555 119.399C131.633 120.09 134.505 117.29 135.05 113.506C135.62 114.695 136.02 115.531 136.432 116.38L136.419 116.368Z" fill="#172647"/>
<path d="M157.843 69.1635C155.711 68.6906 153.566 68.2299 151.433 67.7206C151.276 67.6842 151.033 67.2356 151.094 67.1386C151.566 66.3989 152.039 65.6592 152.645 65.0408C152.766 64.9196 153.614 65.1864 153.747 65.4531C154.196 66.3989 155.456 67.7085 156.353 68.0237C156.91 68.2177 157.419 68.5572 157.952 68.8361C157.916 68.9453 157.88 69.0544 157.843 69.1635Z" fill="#7289B5"/>
<path d="M45.5499 132.556C45.7195 132.58 45.9013 132.592 46.0709 132.616C46.3497 132.616 46.6405 132.616 46.9192 132.604C49.9728 132.932 53.0385 133.55 56.0922 133.526C60.612 133.477 65.1318 132.98 69.6517 132.665C70.5726 132.738 71.4936 132.81 72.4266 132.883C67.0828 135.454 61.4118 136.46 55.5347 136.096C51.5723 135.854 47.9371 134.168 44.1321 133.235C44.1564 133.065 44.1927 132.883 44.217 132.713C44.6653 132.665 45.1137 132.628 45.562 132.58L45.5499 132.556Z" fill="#172647"/>
<path d="M109.918 119.169C108.852 118.769 107.664 118.527 106.731 117.92C104.393 116.393 102.151 114.707 99.9092 113.034C99.679 112.864 99.7275 112.318 99.6426 111.955C99.9698 112.039 100.358 112.027 100.624 112.209C103.617 114.21 106.598 116.235 109.579 118.26C109.773 118.393 109.918 118.575 110.1 118.745C110.052 118.89 109.991 119.036 109.943 119.169H109.918Z" fill="#72181A"/>
<path d="M95.5833 157.898C95.45 157.898 95.3167 157.91 95.1955 157.922C95.2197 157.861 95.244 157.801 95.2682 157.74C95.3651 157.813 95.4742 157.874 95.5711 157.946L95.5833 157.91V157.898Z" fill="#72181A"/>
<path d="M112.342 77.7968C112.342 82.9017 108.379 88.637 104.635 90.1163C101.024 91.5472 97.4372 92.1292 93.7898 90.1891C90.5545 88.4673 89.1367 85.4117 87.9734 82.2348C87.5493 81.0707 87.7311 79.7005 87.5857 78.4274C87.5372 78.0272 87.4281 77.4331 87.1616 77.2876C85.8165 76.5722 85.6832 75.396 85.8407 74.1349C86.2891 70.667 86.9313 67.2355 90.5545 65.5743C93.2082 64.3496 95.9952 64.1678 98.8429 65.1136C103.411 66.6292 107.422 69.0301 110.233 72.9466C111.433 74.6199 111.93 76.8025 112.354 77.7968H112.342ZM95.3772 86.0907C96.3466 85.8118 97.9219 85.642 99.2064 84.9388C100.818 84.0657 102.212 82.7925 103.641 81.6164C103.872 81.4224 103.714 80.7918 103.738 80.3553C103.242 80.3674 102.611 80.1856 102.284 80.4281C98.8186 82.9017 95.1591 84.1991 90.9059 82.6713C90.6635 82.5864 90.3727 82.6713 90.094 82.6834C90.1303 82.9623 90.094 83.2776 90.203 83.4958C91.1846 85.3632 92.9053 85.8724 95.3772 86.0907ZM94.4442 82.8168C97.7402 82.6107 99.8729 81.386 101.472 79.2155C101.751 78.8396 101.763 78.294 101.909 77.8211C101.351 77.6998 100.782 77.4452 100.261 77.5058C99.8607 77.5543 99.4972 78.003 99.1579 78.3182C96.7586 80.5372 94.4442 80.7312 91.8995 78.9124C91.1603 78.3789 90.3727 77.7241 89.682 78.8396C89.0398 79.8824 89.3912 80.901 90.4575 81.386C91.8995 82.0408 93.4506 82.4773 94.4442 82.8168ZM94.5896 75.9174C95.4136 75.3232 95.8862 74.9837 96.3588 74.6442C95.6802 74.1956 95.0258 73.6742 94.2988 73.3468C94.1413 73.274 93.3415 74.0379 93.4021 74.2441C93.5717 74.7776 94.0564 75.202 94.5896 75.9174Z" fill="#72181A"/>
<path d="M84.9077 68.642C84.8229 65.6955 86.4587 63.6948 88.3975 62.0215C94.6744 56.565 105.192 56.7226 111.385 62.3004C112.196 63.0279 112.814 64.0101 113.408 64.9437C113.578 65.2105 113.348 65.7319 113.311 66.132C112.984 66.0229 112.633 65.9623 112.342 65.8046C107.628 63.1613 102.672 61.4273 97.1949 62.0942C92.772 62.6399 88.7368 64.1071 85.8771 67.8296C85.6226 68.157 85.2349 68.3753 84.9198 68.642H84.9077Z" fill="#7289B5"/>
<path d="M123.054 50.7448C124.205 50.2234 125.356 49.6899 126.519 49.1928C127.053 48.9624 127.622 48.8169 128.179 48.635C129.997 48.0408 130.373 48.2106 130.821 50.0294C130.882 50.2598 130.361 50.8903 130.094 50.9025C127.816 50.9752 125.526 50.9388 123.248 50.9388C123.187 50.8782 123.114 50.8055 123.054 50.7448Z" fill="#172647"/>
<path d="M195.686 14.3684C190.912 14.1017 186.865 16.0781 182.963 18.5154C181.896 19.1823 180.866 19.9462 179.824 20.6616C179.618 20.5767 179.412 20.4797 179.206 20.4069C178.649 20.2008 178.104 20.0068 177.546 19.8007C177.789 19.352 177.958 18.8427 178.298 18.479C182.854 13.4954 188.379 11.2764 195.129 12.6951C195.904 12.8527 196.607 13.3499 197.334 13.6894C197.286 13.8107 197.237 13.9319 197.189 14.0532C196.68 14.1623 196.183 14.2714 195.674 14.3806L195.686 14.3684Z" fill="#7289B5"/>
<path d="M134.735 234.629C139.788 225.716 146.501 218.174 153.893 211.141C161.624 203.769 169.415 196.409 176.662 188.564C181.291 183.556 185.326 177.893 188.997 172.122C195.82 161.354 199.782 149.507 200.485 136.703C200.921 128.761 199.479 121.085 196.886 113.592C193.626 104.146 188.925 95.4762 183.387 87.1824C180.152 82.3322 177.183 77.3001 174.25 72.2559C173.39 70.7766 173.099 68.982 172.542 67.3451C172.687 67.2602 172.833 67.1753 172.99 67.1025C173.669 67.7573 174.456 68.3393 175.014 69.0911C179.521 75.1417 184.15 81.1075 188.428 87.3158C191.736 92.0932 194.656 97.1132 197.104 102.461C200.097 108.984 202.496 115.653 204.06 122.625C205.574 129.355 205.55 136.145 204.665 142.996C203.708 150.502 201.757 157.704 198.558 164.507C196.377 169.127 193.82 173.613 191.057 177.918C184.599 187.933 176.298 196.348 167.525 204.327C161.272 210.026 155.008 215.713 148.828 221.497C144.332 225.692 139.812 229.887 136.238 234.956C136.068 235.186 135.814 235.368 135.608 235.562C135.317 235.259 135.026 234.956 134.735 234.665V234.629Z" fill="#7289B5"/>
<path d="M134.735 234.628C135.026 234.931 135.317 235.235 135.608 235.526C135.474 235.792 135.402 236.12 135.196 236.29C134.687 236.726 134.117 237.078 133.572 237.466C133.705 236.799 133.778 236.108 133.996 235.465C134.105 235.138 134.481 234.895 134.735 234.616V234.628Z" fill="#172647"/>
<path d="M187.725 37.2735C191.542 42.063 196.377 45.7371 201.176 49.4232C211.027 56.9895 220.006 65.441 227.725 75.202C234.256 83.4716 239.249 92.6143 243.429 102.242C246.956 110.378 248.967 118.89 249.985 127.657C250.07 128.336 250.191 129.015 250.288 129.682C250.373 132.871 250.506 136.06 250.53 139.249C250.603 147.955 249.258 156.431 246.435 164.664C245.005 168.835 243.769 173.067 242.157 177.165C241.2 179.615 239.709 181.846 238.461 184.186C238.316 184.138 238.158 184.077 238.013 184.028C238.243 182.961 238.413 181.882 238.704 180.827C240.291 175.165 242.097 169.563 243.466 163.852C244.447 159.765 245.102 155.558 245.465 151.362C245.914 146.148 246.265 140.886 246.011 135.672C245.453 124.165 242.593 113.143 238.001 102.569C234.414 94.2997 229.991 86.5151 224.599 79.2883C217.449 69.7213 208.834 61.5851 199.746 53.9097C193.905 48.9746 188.295 43.7727 184.066 37.3705C182.018 34.2663 180.709 30.6529 179.146 27.2335C178.916 26.7364 179.11 26.0574 179.11 25.4511L179.558 25.2935C180.03 26.0937 180.624 26.8576 180.964 27.7186C182.418 31.4775 184.962 34.424 187.725 37.2371V37.2735Z" fill="#7289B5"/>
<path d="M67.8461 124.638C65.9437 125.038 64.0655 125.608 62.1388 125.789C53.2566 126.614 44.8713 124.492 36.7646 121.121C35.2378 120.491 33.8685 119.302 32.6689 118.126C31.1784 116.683 31.13 114.986 32.572 113.555C34.4623 111.675 36.5465 109.99 38.5701 108.256C41.3935 105.843 43.6837 103.078 44.2169 99.271C44.5683 96.7489 43.0173 94.9422 41.5268 93.1597C40.6301 92.0805 39.8182 90.9407 38.97 89.8252C45.6104 89.9828 49.8879 95.7667 48.2399 102.642C47.7068 104.849 46.701 106.971 45.7195 109.044C44.3139 112.015 44.5199 113.834 46.798 116.21C50.518 120.066 55.1591 122.164 60.3211 123.11C62.2236 123.461 64.2351 123.255 66.1739 123.486C66.7556 123.558 67.2766 124.237 67.8219 124.65L67.8461 124.638Z" fill="#172647"/>
<path d="M46.9313 132.592C46.6526 132.592 46.3618 132.592 46.0831 132.604C46.3618 132.604 46.6526 132.604 46.9313 132.592Z" fill="#72181A"/>
<path d="M29.2761 105.697C30.815 106.401 32.366 107.092 33.8928 107.819C34.3897 108.062 34.838 108.401 35.3833 108.741C33.0446 110.147 30.9725 109.141 28.9125 105.77C29.0337 105.746 29.1549 105.722 29.2639 105.697H29.2761Z" fill="#172647"/>
<path d="M29.276 105.698C29.1549 105.722 29.0337 105.746 28.9246 105.77C27.6644 105.091 26.5981 103.03 27.0585 101.393C27.7977 102.824 28.5369 104.255 29.276 105.685V105.698Z" fill="#172647"/>
<path d="M147.87 82.6106C148.961 79.5186 150.924 78.0877 154.208 77.9544C157.31 77.8331 160.194 78.7304 163.054 79.8096C161.418 79.6398 159.782 79.4458 158.134 79.3003C157.262 79.2154 156.377 79.2275 155.505 79.1548C152.645 78.9123 150.27 79.7732 148.561 82.1862C148.416 82.3923 148.101 82.4772 147.87 82.6227V82.6106Z" fill="#7289B5"/>
<path d="M95.3772 86.0908C92.9053 85.8847 91.1846 85.3754 90.203 83.4959C90.0819 83.2655 90.1182 82.9503 90.094 82.6835C90.3606 82.6835 90.6635 82.5865 90.9059 82.6714C95.147 84.1992 98.8186 82.9018 102.284 80.4282C102.611 80.1857 103.254 80.3675 103.738 80.3554C103.714 80.7919 103.872 81.4346 103.641 81.6165C102.224 82.8048 100.818 84.0658 99.2064 84.9389C97.9219 85.6421 96.3588 85.8119 95.3772 86.0908Z" fill="#172647"/>
<path d="M94.4442 82.8167C93.4505 82.4651 91.8995 82.0286 90.4575 81.3859C89.3911 80.9009 89.0397 79.8824 89.682 78.8396C90.3727 77.724 91.1603 78.3788 91.8995 78.9123C94.4442 80.7312 96.7586 80.525 99.1579 78.3182C99.4972 78.0029 99.8607 77.5543 100.261 77.5058C100.794 77.4451 101.363 77.6998 101.909 77.821C101.775 78.2939 101.751 78.8396 101.472 79.2155C99.885 81.3859 97.7401 82.6106 94.4442 82.8167Z" fill="#7289B5"/>
<path d="M94.5896 75.9178C94.0564 75.2024 93.5717 74.778 93.4021 74.2445C93.3415 74.0504 94.1412 73.2865 94.2988 73.3472C95.0379 73.6746 95.6802 74.196 96.3588 74.6446C95.8862 74.9841 95.4136 75.3236 94.5896 75.9178Z" fill="#7289B5"/>
<path d="M136.844 167.817C136.844 163.185 136.844 158.565 136.844 153.933C136.844 152.526 134.662 152.526 134.662 153.933C134.662 158.565 134.662 163.185 134.662 167.817C134.662 169.223 136.844 169.223 136.844 167.817Z" fill="#172647"/>
<path d="M132.033 160.626C132.033 158.407 132.033 156.201 132.033 153.982C132.033 153.897 132.033 153.8 132.033 153.715C132.009 153.351 131.887 153.218 131.79 153.46C131.79 153.497 131.766 153.521 131.754 153.557C130.421 158.044 129.088 162.53 127.755 167.029C127.743 167.077 127.731 167.126 127.707 167.174C127.67 167.307 127.658 167.465 127.683 167.635C127.707 167.805 127.743 167.902 127.804 167.914C127.816 167.914 127.84 167.914 127.852 167.914C129.173 167.914 130.494 167.914 131.827 167.914C131.972 167.914 132.021 167.768 132.021 167.295C132.021 165.064 132.021 162.845 132.021 160.614L132.033 160.626Z" fill="#172647"/>
<defs>
<radialGradient id="paint0_radial_552_234" cx="0" cy="0" r="1" gradientUnits="userSpaceOnUse" gradientTransform="translate(118.195 125.971) scale(118.195 118.272)">
<stop offset="0.03" stop-color="#F0F0F0"/>
<stop offset="0.45" stop-color="#EEEEEE"/>
<stop offset="0.6" stop-color="#E7E9EA"/>
<stop offset="0.7" stop-color="#DBE0E2"/>
<stop offset="0.79" stop-color="#CAD2D7"/>
<stop offset="0.86" stop-color="#B4C1C9"/>
<stop offset="0.93" stop-color="#99ACB8"/>
<stop offset="0.99" stop-color="#7993A3"/>
<stop offset="1" stop-color="#718D9E"/>
</radialGradient>
</defs>
</svg>
